<svg xmlns="http://www.w3.org/2000/svg" height="512pt" viewBox="-24 0 512 512.00002" width="512pt"><path d="m416.042969 160h-32v-16h32zm-48 0h-48v-16h48zm-64 0h-80v-16h80zm-96 0h-112v-16h112zm0 0"></path><path d="m416.042969 200h-112v-16h112zm-128 0h-80v-16h80zm-96 0h-48v-16h48zm-64 0h-32v-16h32zm0 0"></path><path d="m416.042969 240h-16v-16h16zm-32 0h-32v-16h32zm-48 0h-96v-16h96zm0 0"></path><path d="m416.042969 280h-16v-16h16zm-32 0h-112v-16h112zm0 0"></path><path d="m416.042969 320h-80v-16h80zm-96 0h-32v-16h32zm0 0"></path><path d="m416.042969 360h-24v-16h24zm-40 0h-56v-16h56zm-72 0h-32v-16h32zm0 0"></path><path d="m336.042969 456h64v16h-64zm0 0"></path><path d="m320.042969 424h96v16h-96zm0 0"></path><path d="m56.042969 80c-13.253907 0-24-10.746094-24-24s10.746093-24 24-24v16c-4.417969 0-8 3.582031-8 8s3.582031 8 8 8zm0 0"></path><path d="m408.539062 0h-352.496093c-29.386719-.0234375-53.792969 22.675781-55.898438 51.988281-2.105469 29.316407 18.808594 55.269531 47.898438 59.445313v400.566406h416v-456c-.03125-30.722656-24.78125-55.691406-55.503907-56zm-392.496093 56c.027343-22.082031 17.921875-39.972656 40-40h312.800781c-10.769531 10.523438-16.839844 24.945312-16.839844 40s6.070313 29.476562 16.839844 40h-312.800781c-22.078125-.027344-39.972657-17.917969-40-40zm432 440h-384v-384h352v-16h-8c-22.089844 0-40-17.910156-40-40s17.910156-40 40-40c22.09375 0 40 17.910156 40 40zm0 0"></path><path d="m251.75 292c-.5625-2.734375-.730469-5.535156-.503906-8.320312.816406-6.539063-.59375-13.164063-4-18.808594-4.371094-5-10.28125-8.402344-16.800782-9.671875-2.679687-.640625-5.253906-1.652344-7.648437-3.007813-1.988281-1.835937-3.710937-3.941406-5.121094-6.253906-3.222656-5.832031-8.304687-10.421875-14.429687-13.042969-6.355469-1.46875-13.019532-.757812-18.921875 2.015625-2.644531 1.09375-5.433594 1.804688-8.28125 2.113282-2.84375-.308594-5.632813-1.019532-8.277344-2.113282-5.90625-2.765625-12.566406-3.472656-18.921875-2.015625-6.144531 2.621094-11.234375 7.222657-14.464844 13.074219-1.40625 2.3125-3.125 4.417969-5.109375 6.253906-2.402343 1.355469-4.976562 2.367188-7.65625 3.007813-6.503906 1.265625-12.402343 4.65625-16.769531 9.640625-3.40625 5.644531-4.816406 12.269531-4 18.808594.222656 2.785156.046875 5.589843-.519531 8.328124-1.117188 2.398438-2.554688 4.632813-4.28125 6.640626-4.597657 4.925781-7.414063 11.246093-8 17.960937.585937 6.710937 3.402343 13.035156 8 17.957031 1.722656 2.007813 3.164062 4.238282 4.28125 6.632813.566406 2.738281.742187 5.542969.519531 8.328125-.816406 6.542968.589844 13.171875 4 18.816406 3.925781 4.636719 9.265625 7.851562 15.199219 9.144531v91.457031l40-20v36.796876l36-20.566407 36 20.609375v-108.296875c5.9375-1.292969 11.277343-4.507812 15.203125-9.144531 3.40625-5.644531 4.8125-12.273438 4-18.816406-.222656-2.785156-.046875-5.589844.519531-8.328125 1.117187-2.394531 2.558594-4.625 4.277344-6.632813 4.601562-4.921875 7.417969-11.246094 8-17.957031-.582031-6.714844-3.398438-13.035156-8-17.960937-1.730469-2.007813-3.175781-4.246094-4.292969-6.648438zm-91.707031 139.054688-24 12v-53.453126c2.984375 4.878907 7.480469 8.648438 12.800781 10.742188 3.644531 1.082031 7.515625 1.160156 11.199219.222656zm56 27.203124-20-11.433593-20 11.390625v-62.03125c2.847656.3125 5.636719 1.023437 8.28125 2.121094 4.164062 1.691406 8.582031 2.679687 13.070312 2.917968 1.988281.011719 3.960938-.292968 5.851563-.902344 5.316406-2.089843 9.808594-5.851562 12.796875-10.71875zm27.265625-133.355468c-2.886719 3.390625-5.175782 7.246094-6.777344 11.402344-1.191406 4.425781-1.632812 9.023437-1.304688 13.597656.375 3.066406.058594 6.171875-.925781 9.097656-2.492187 1.882812-5.386719 3.164062-8.457031 3.742188-4.417969 1.085937-8.625 2.90625-12.4375 5.386718-3.503906 2.839844-6.496094 6.253906-8.859375 10.09375-2.0625 2.976563-4.390625 6.351563-6.238281 6.953125-3.023438-.003906-6.007813-.660156-8.753906-1.929687-4.300782-1.765625-8.867188-2.800782-13.511719-3.0625-4.636719.238281-9.203125 1.25-13.511719 2.992187-2.746094 1.261719-5.730469 1.917969-8.75 1.929688-1.847656-.601563-4.183594-4-6.242188-6.960938-2.367187-3.835937-5.359374-7.246093-8.855468-10.089843-3.820313-2.476563-8.027344-4.300782-12.445313-5.390626-3.066406-.578124-5.957031-1.855468-8.449219-3.726562-.988281-2.925781-1.3125-6.03125-.945312-9.097656.332031-4.574219-.109375-9.171875-1.304688-13.601563-1.597656-4.152343-3.890624-8.007812-6.773437-11.398437-2.214844-2.324219-3.832031-5.148438-4.722656-8.230469.894531-3.09375 2.515625-5.925781 4.738281-8.257813 2.882812-3.390624 5.175781-7.246093 6.773438-11.398437 1.195312-4.429687 1.636718-9.027344 1.304687-13.601563-.371094-3.058593-.054687-6.164062.929687-9.085937 2.492188-1.882813 5.382813-3.164063 8.449219-3.746094 4.421875-1.082031 8.628907-2.902343 12.445313-5.382812 3.5-2.84375 6.496094-6.257813 8.863281-10.097657 2.058594-2.976562 4.394531-6.351562 6.234375-6.949218 3.019531 0 6.007812.65625 8.75 1.917968 4.304688 1.753907 8.871094 2.773438 13.511719 3.015626 4.640625-.234376 9.207031-1.246094 13.511719-2.992188 2.746093-1.257812 5.726562-1.910156 8.746093-1.917969 1.847657.597657 4.191407 4 6.246094 6.957031 2.371094 3.835938 5.363281 7.242188 8.859375 10.089844 3.816406 2.480469 8.023438 4.300782 12.445312 5.382813 3.066407.582031 5.957032 1.863281 8.449219 3.746093.980469 2.921876 1.300781 6.027344.925781 9.085938-.328124 4.574219.113282 9.171875 1.304688 13.601562 1.601562 4.15625 3.890625 8.007813 6.777344 11.398438 2.214844 2.324219 3.839844 5.148438 4.734375 8.234375-.886719 3.09375-2.511719 5.925781-4.734375 8.253906zm0 0"></path><path d="m176.042969 268.609375c-26.507813 0-48 21.488281-48 48 0 26.507813 21.492187 48 48 48 26.511719 0 48-21.492187 48-48-.03125-26.5-21.5-47.96875-48-48zm0 80c-17.671875 0-32-14.328125-32-32 0-17.675781 14.328125-32 32-32 17.675781 0 32 14.324219 32 32 0 17.671875-14.324219 32-32 32zm0 0"></path></svg>