<svg xmlns="http://www.w3.org/2000/svg" id="Capa_1" height="512" viewBox="0 0 512 512" width="512"><g><path d="m226 451c19.356 0 38.469-2.452 56.998-7.292 19.464 40.386 60.561 68.292 108.002 68.292 66.346 0 121-54.669 121-121 0-47.442-27.906-88.539-68.292-108.002 4.84-18.529 7.292-37.641 7.292-56.998 0-124.617-100.935-226-225-226-124.38 0-226 101.632-226 226 0 124.065 101.383 225 226 225zm256-60c0 49.327-41.673 91-91 91-49.626 0-90-40.822-90-91 0-49.626 40.374-90 90-90 50.178 0 91 40.374 91 90zm-256-361c107.523 0 195 87.925 195 196 0 16.093-1.955 31.982-5.809 47.411-7.819-1.58-15.909-2.411-24.191-2.411-66.168 0-120 53.832-120 120 0 8.282.831 16.372 2.411 24.191-15.429 3.853-31.318 5.809-47.411 5.809-108.075 0-196-87.477-196-195 0-108.075 87.925-196 196-196z"></path><path d="m211 61h30v30h-30z"></path><path d="m211 361h30v30h-30z"></path><path d="m104.934 104.934h30v30h-30z" transform="matrix(.707 -.707 .707 .707 -49.678 119.935)"></path><path d="m104.934 317.066h30v30h-30z" transform="matrix(.707 -.707 .707 .707 -199.677 182.062)"></path><path d="m317.066 104.934h30v30h-30z" transform="matrix(.707 -.707 .707 .707 12.452 269.93)"></path><path d="m61 211h30v30h-30z"></path><path d="m361 211h30v30h-30z"></path><path d="m301 211h-60v-90h-30v120h90z"></path><path d="m356.606 380.394-21.212 21.212 40.606 40.607 70.606-70.607-21.212-21.213-49.394 49.394z"></path></g></svg>