<svg xmlns="http://www.w3.org/2000/svg" xmlns:xlink="http://www.w3.org/1999/xlink" id="Capa_1" x="0px" y="0px" viewBox="0 0 512.251 512.251" style="enable-background:new 0 0 512.251 512.251;" xml:space="preserve">
<g>
	<g>
		<g>
			<path d="M291.469,211.605l-35.344-71.632l-35.344,71.632l-79.04,11.488l57.2,55.744l-13.504,78.72l70.688-37.168l70.688,37.168     l-13.504-78.72l57.2-55.744L291.469,211.605z M284.317,299.061l-28.192-14.832l-28.192,14.832l5.376-31.392l-22.8-22.24     l31.52-4.576l14.096-28.56l14.096,28.56l31.52,4.576l-22.8,22.24L284.317,299.061z"></path>
			<path d="M495.486,276.517c-6.336-12.855-6.342-27.924-0.016-40.784c18.763-38.01,3.807-84.049-33.712-103.776     c-12.697-6.673-21.567-18.872-24-33.008c-7.154-41.786-46.32-70.246-88.272-64.144c-14.2,2.056-28.549-2.603-38.832-12.608     c-30.34-29.597-78.748-29.597-109.088,0c-10.277,10.016-24.631,14.677-38.832,12.608c-41.944-6.084-81.095,22.37-88.256,64.144     c-2.433,14.136-11.303,26.335-24,33.008c-37.519,19.727-52.475,65.766-33.712,103.776c6.351,12.858,6.351,27.942,0,40.8     c-18.763,38.01-3.807,84.049,33.712,103.776c12.697,6.673,21.567,18.872,24,33.008c7.177,41.771,46.326,70.22,88.272,64.144     c14.198-2.07,28.551,2.584,38.832,12.592c30.34,29.597,78.748,29.597,109.088,0c10.281-10.01,24.632-14.669,38.832-12.608     c41.948,6.085,81.103-22.368,88.272-64.144c2.433-14.136,11.303-26.335,24-33.008     C499.292,360.566,514.248,314.528,495.486,276.517z M466.717,290.581h-0.048c11.119,22.51,2.258,49.78-19.968,61.456     c-21.427,11.291-36.395,31.893-40.512,55.76c-4.235,24.743-27.432,41.593-52.272,37.968c-23.992-3.496-48.243,4.383-65.6,21.312     c-17.971,17.524-46.637,17.524-64.608,0c-14.562-14.17-34.082-22.093-54.4-22.08c-3.747-0.003-7.49,0.259-11.2,0.784     c-24.838,3.616-48.029-13.23-52.272-37.968c-4.117-23.867-19.085-44.469-40.512-55.76c-22.224-11.669-31.085-38.935-19.968-61.44     c10.719-21.72,10.719-47.192,0-68.912c-11.119-22.51-2.258-49.78,19.968-61.456c21.499-11.253,36.537-31.868,40.688-55.776     c4.204-24.763,27.423-41.628,52.272-37.968c23.989,3.456,48.223-4.418,65.6-21.312c17.978-17.507,46.63-17.507,64.608,0     c17.379,16.891,41.614,24.758,65.6,21.296c24.851-3.669,48.076,13.201,52.272,37.968c4.117,23.867,19.085,44.469,40.512,55.76     c22.224,11.67,31.085,38.935,19.968,61.44C456.08,243.358,456.033,268.837,466.717,290.581z"></path>
			<path d="M385.389,192.597l28.72-14.128c-5.191-10.538-11.424-20.529-18.608-29.824l-25.312,19.568     C376.054,175.816,381.146,183.985,385.389,192.597z"></path>
			<path d="M395.421,219.493c20.147,76.844-25.815,155.47-102.659,175.616c-76.843,20.147-155.47-25.815-175.616-102.659     s25.815-155.47,102.658-175.616c26.61-6.977,54.663-6.176,80.832,2.306l9.872-30.4c-92.341-29.87-191.413,20.773-221.283,113.114     S110,393.268,202.341,423.138c92.341,29.87,191.413-20.773,221.283-113.114c10.337-31.956,11.3-66.205,2.774-98.691     L395.421,219.493z"></path>
			<path d="M371.325,123.125c-8.846-7.689-18.435-14.479-28.624-20.272l-15.776,27.84c8.364,4.758,16.237,10.332,23.504,16.64     L371.325,123.125z"></path>
		</g>
	</g>
</g>
<g>
</g>
<g>
</g>
<g>
</g>
<g>
</g>
<g>
</g>
<g>
</g>
<g>
</g>
<g>
</g>
<g>
</g>
<g>
</g>
<g>
</g>
<g>
</g>
<g>
</g>
<g>
</g>
<g>
</g>
</svg>