<svg xmlns="http://www.w3.org/2000/svg" id="Capa_1" height="512" viewBox="0 0 512.049 512.049" width="512"><g><path d="m256.027 0c-59.91 32.617-140.919 60.021-210.002 60.021h-15v15c0 126.448 26.076 260.586 108.683 355.545 30.126 34.631 72.797 68.377 116.317 81.483 43.588-13.126 86.096-46.743 116.317-81.483 82.666-95.027 108.683-229.242 108.683-355.545v-15h-15c-68.384 0-149.205-26.921-209.998-60.021zm95.066 409.274c-40.764 47.509-82.023 66.203-95.064 71.242-13.096-5.062-54.331-23.761-95.071-71.242-44.339-51.676-96.96-148.734-99.811-319.619 87.463-4.189 170.239-43.045 194.879-55.591 24.64 12.546 107.416 51.402 194.879 55.591-2.853 170.885-55.474 267.943-99.812 319.619z"></path><path d="m121.025 226.021c0 74.439 60.561 135 135 135s135-60.561 135-135c0-74.991-60.561-136-135-136s-135 61.01-135 136zm240 0c0 57.897-47.103 105-105 105s-105-47.103-105-105c0-58.448 47.103-106 105-106s105 47.552 105 106z"></path><path d="m206.631 215.415-21.213 21.213 55.677 55.677 85.606-86.747-21.353-21.073-64.394 65.253z"></path></g></svg>